<?xml version="1.0" standalone="no"?>
<!DOCTYPE svg PUBLIC "-//W3C//DTD SVG 20010904//EN"
 "http://www.w3.org/TR/2001/REC-SVG-20010904/DTD/svg10.dtd">
<svg version="1.0" xmlns="http://www.w3.org/2000/svg"
 width="489.000000pt" height="489.000000pt" viewBox="0 0 489.000000 489.000000"
 preserveAspectRatio="xMidYMid meet">
<metadata>
Created by potrace 1.11, written by Peter Selinger 2001-2013
</metadata>
<g transform="translate(0.000000,489.000000) scale(0.100000,-0.100000)"
fill="#000000" stroke="none">
<path d="M2367 4884 c-1 -1 -45 -4 -97 -8 -52 -3 -106 -8 -119 -11 -12 -2 -42
-7 -65 -9 -118 -15 -304 -61 -461 -116 -164 -57 -507 -238 -609 -321 -6 -5
-30 -24 -52 -41 -23 -18 -61 -49 -85 -68 -125 -99 -326 -320 -441 -486 -216
-309 -375 -732 -413 -1094 -4 -36 -9 -74 -11 -85 -6 -27 -6 -383 0 -415 2 -14
7 -52 11 -85 5 -52 12 -94 32 -205 10 -60 65 -258 83 -305 4 -11 25 -63 45
-115 229 -582 721 -1085 1305 -1332 86 -36 222 -87 250 -93 8 -2 27 -8 43 -14
15 -6 27 -8 27 -6 0 2 11 0 25 -5 14 -5 36 -12 48 -14 102 -21 137 -27 167
-32 19 -3 46 -8 60 -11 14 -4 158 -8 320 -9 276 -3 304 -2 432 21 133 24 321
71 403 102 111 42 199 80 285 124 147 76 168 89 270 157 572 387 954 994 1057
1682 10 69 11 617 0 688 -4 30 -11 73 -16 95 -5 23 -12 58 -15 77 -9 58 -72
271 -109 367 -81 209 -233 479 -348 618 -211 254 -352 385 -584 541 -222 148
-548 291 -773 339 -129 27 -164 34 -202 39 -25 3 -55 8 -67 10 -50 10 -387 27
-396 20z"/>
</g>
</svg>
