<?xml version="1.0" standalone="no"?>
<!DOCTYPE svg PUBLIC "-//W3C//DTD SVG 20010904//EN"
 "http://www.w3.org/TR/2001/REC-SVG-20010904/DTD/svg10.dtd">
<svg version="1.0" xmlns="http://www.w3.org/2000/svg"
 width="500.000000pt" height="500.000000pt" viewBox="0 0 500.000000 500.000000"
 preserveAspectRatio="xMidYMid meet">
<metadata>
Created by potrace 1.11, written by Peter Selinger 2001-2013
</metadata>
<g transform="translate(0.000000,500.000000) scale(0.100000,-0.100000)"
fill="#000000" stroke="none">
<path d="M0 2500 l0 -2500 2500 0 2500 0 0 2500 0 2500 -2500 0 -2500 0 0
-2500z m2814 615 c87 -18 176 -60 244 -114 l53 -42 -18 -29 c-9 -17 -20 -30
-23 -30 -3 0 -30 18 -60 41 -110 82 -194 110 -342 110 -110 0 -160 -11 -240
-53 -115 -61 -201 -185 -233 -334 -19 -90 -19 -298 0 -388 40 -190 164 -330
334 -376 61 -16 225 -14 294 5 72 19 117 42 187 94 30 23 57 41 60 41 3 0 14
-13 23 -30 l18 -29 -53 -42 c-117 -93 -257 -134 -423 -126 -219 12 -373 111
-463 297 -53 111 -72 207 -72 367 0 153 22 258 76 365 44 87 136 184 213 222
121 62 284 81 425 51z m-1713 -590 c140 -327 257 -595 260 -595 3 0 117 262
254 583 136 320 252 588 258 595 10 13 77 17 77 5 0 -5 -124 -297 -277 -651
l-276 -643 -39 3 -39 3 -273 640 c-150 352 -271 643 -269 648 2 4 19 7 37 7
l33 0 254 -595z m3344 110 l0 -60 -519 -3 c-409 -2 -521 0 -528 10 -9 15 -11
80 -2 102 6 15 59 16 528 14 l521 -3 0 -60z m-327 -227 l-3 -63 -349 -3 c-249
-2 -353 1 -362 9 -8 6 -14 29 -14 49 0 75 -28 70 372 70 l359 0 -3 -62z m-268
-177 c15 -29 12 -87 -6 -105 -13 -14 -47 -16 -215 -16 -119 0 -208 4 -220 10
-15 8 -19 21 -19 58 0 27 5 53 12 60 9 9 73 12 225 12 200 0 213 -1 223 -19z"/>
</g>
</svg>
