<?xml version="1.0" standalone="no"?>
<!DOCTYPE svg PUBLIC "-//W3C//DTD SVG 20010904//EN"
 "http://www.w3.org/TR/2001/REC-SVG-20010904/DTD/svg10.dtd">
<svg version="1.0" xmlns="http://www.w3.org/2000/svg"
 width="500.000000pt" height="500.000000pt" viewBox="0 0 500.000000 500.000000"
 preserveAspectRatio="xMidYMid meet">
<metadata>
Created by potrace 1.11, written by Peter Selinger 2001-2013
</metadata>
<g transform="translate(0.000000,500.000000) scale(0.100000,-0.100000)"
fill="#000000" stroke="none">
<path d="M2505 3126 c-251 -49 -418 -201 -486 -441 -30 -104 -32 -305 -5 -405
47 -175 156 -317 301 -392 110 -57 179 -72 335 -72 152 0 220 14 335 69 112
54 111 50 55 184 -27 62 -51 115 -53 117 -2 3 -26 -9 -53 -26 -150 -92 -343
-105 -457 -29 -86 57 -127 150 -135 306 -10 213 48 348 177 407 37 17 65 20
146 20 111 -1 178 -19 267 -74 28 -17 52 -29 54 -27 3 2 27 55 54 118 l50 114
-28 23 c-39 33 -137 77 -212 96 -90 23 -258 29 -345 12z"/>
<path d="M520 3112 c0 -4 129 -293 288 -642 l287 -635 137 -3 c103 -2 137 1
141 10 3 7 132 292 287 633 155 341 284 626 287 633 4 10 -30 12 -167 10
l-172 -3 -184 -424 c-101 -233 -185 -426 -187 -428 -2 -2 -86 190 -187 427
l-183 430 -174 0 c-95 0 -173 -3 -173 -8z"/>
<path d="M3406 2834 c-19 -18 -22 -114 -6 -145 10 -19 29 -19 718 -19 537 0
711 3 720 12 7 7 12 40 12 78 0 38 -5 71 -12 78 -9 9 -181 12 -714 12 -625 0
-704 -2 -718 -16z"/>
<path d="M3396 2514 c-3 -9 -6 -40 -6 -69 0 -94 -51 -85 505 -85 556 0 505 -9
505 85 0 94 51 85 -505 85 -440 0 -494 -2 -499 -16z"/>
<path d="M3396 2204 c-3 -9 -6 -40 -6 -69 0 -92 -27 -85 314 -85 222 0 305 3
314 12 13 13 16 97 6 136 l-6 22 -308 0 c-272 0 -309 -2 -314 -16z"/>
</g>
</svg>
