<?xml version="1.0" standalone="no"?>
<!DOCTYPE svg PUBLIC "-//W3C//DTD SVG 20010904//EN"
 "http://www.w3.org/TR/2001/REC-SVG-20010904/DTD/svg10.dtd">
<svg version="1.0" xmlns="http://www.w3.org/2000/svg"
 width="500.000000pt" height="500.000000pt" viewBox="0 0 500.000000 500.000000"
 preserveAspectRatio="xMidYMid meet">
<metadata>
Created by potrace 1.11, written by Peter Selinger 2001-2013
</metadata>
<g transform="translate(0.000000,500.000000) scale(0.100000,-0.100000)"
fill="#000000" stroke="none">
<path d="M2514 3110 c-160 -42 -274 -135 -344 -282 -57 -120 -74 -217 -68
-397 4 -122 10 -159 31 -226 50 -153 144 -273 259 -331 206 -105 487 -77 666
65 l53 42 -18 29 c-9 17 -20 30 -23 30 -3 0 -30 -18 -60 -41 -112 -84 -194
-110 -344 -110 -160 0 -254 38 -349 140 -95 102 -137 235 -137 441 0 209 42
340 142 446 91 97 193 136 350 136 143 -1 228 -28 338 -111 30 -23 57 -41 60
-41 3 0 14 13 23 30 l18 29 -53 42 c-144 114 -359 158 -544 109z"/>
<path d="M806 3028 c20 -46 144 -336 276 -645 l240 -563 38 0 38 0 273 637
c151 350 276 640 278 645 1 5 -16 8 -39 6 l-42 -3 -251 -587 c-138 -324 -253
-588 -256 -588 -3 0 -119 265 -257 588 l-251 587 -41 3 -42 3 36 -83z"/>
<path d="M3396 2684 c-9 -22 -7 -87 2 -102 7 -10 119 -12 528 -10 l519 3 0 60
0 60 -521 3 c-469 2 -522 1 -528 -14z"/>
<path d="M3396 2454 c-11 -28 -6 -91 8 -103 9 -8 113 -11 362 -9 l349 3 3 63
3 62 -359 0 c-319 0 -361 -2 -366 -16z"/>
<path d="M3400 2180 l0 -60 225 0 225 0 0 60 0 60 -225 0 -225 0 0 -60z"/>
</g>
</svg>
